<svg width="700" height="700" viewBox="0 0 700 700" fill="none" xmlns="http://www.w3.org/2000/svg">
  <path fill="#000" d="M0 0h700v700H0z"/>
  <path d="M89.211 250.707c-10.06 0-19.06-1.659-27.002-4.976-7.81-3.451-14.031-8.096-18.664-13.935-4.5-5.973-7.016-12.675-7.545-20.107h37.724c.53 3.583 2.184 6.37 4.964 8.361 2.78 1.991 6.221 2.986 10.325 2.986 3.176 0 5.691-.663 7.544-1.99 1.854-1.328 2.78-3.053 2.78-5.176 0-2.787-1.522-4.844-4.567-6.172-3.044-1.327-8.074-2.787-15.09-4.379-7.941-1.593-14.56-3.384-19.854-5.375-5.295-1.991-9.928-5.242-13.898-9.755-3.84-4.512-5.758-10.617-5.758-18.314 0-6.636 1.786-12.608 5.36-17.917 3.574-5.441 8.803-9.755 15.686-12.94 7.015-3.185 15.42-4.777 25.215-4.777 14.561 0 26.01 3.583 34.349 10.749 8.34 7.167 13.171 16.59 14.495 28.269h-35.144c-.662-3.584-2.25-6.304-4.765-8.162-2.382-1.991-5.625-2.986-9.729-2.986-3.177 0-5.625.597-7.346 1.791-1.588 1.195-2.383 2.854-2.383 4.977 0 2.655 1.523 4.712 4.567 6.171 3.044 1.328 7.942 2.721 14.693 4.181 8.074 1.725 14.758 3.65 20.053 5.773 5.427 2.124 10.126 5.574 14.097 10.352 4.103 4.645 6.155 11.015 6.155 19.111 0 6.503-1.919 12.342-5.758 17.518-3.706 5.176-9.067 9.29-16.082 12.343-6.883 2.92-15.024 4.379-24.422 4.379Zm104.31-97.545c3.044-5.176 7.346-9.29 12.905-12.343 5.56-3.052 12.112-4.578 19.657-4.578 8.868 0 16.877 2.322 24.024 6.967 7.28 4.645 12.972 11.281 17.076 19.907 4.235 8.627 6.353 18.713 6.353 30.259 0 11.547-2.118 21.699-6.353 30.459-4.104 8.626-9.796 15.262-17.076 19.907-7.147 4.645-15.156 6.967-24.024 6.967-7.545 0-14.097-1.526-19.657-4.578-5.427-3.053-9.728-7.167-12.905-12.343V428h-38.916V137.634h38.916v15.528Zm40.504 40.212c0-7.299-1.986-12.939-5.957-16.921-3.838-4.114-8.603-6.171-14.295-6.171s-10.523 2.057-14.494 6.171c-3.839 4.114-5.758 9.755-5.758 16.921 0 7.3 1.919 13.007 5.758 17.121 3.971 4.114 8.802 6.171 14.494 6.171s10.457-2.057 14.295-6.171c3.971-4.247 5.957-9.954 5.957-17.121Zm161.954-1.194c0 3.052-.199 6.105-.596 9.157h-73.662c.398 6.105 2.052 10.684 4.964 13.736 3.045 2.92 6.883 4.38 11.516 4.38 6.486 0 11.119-2.92 13.898-8.759h41.497c-1.721 7.697-5.096 14.598-10.126 20.703-4.897 5.973-11.118 10.684-18.663 14.135-7.545 3.45-15.884 5.175-25.018 5.175-10.986 0-20.781-2.322-29.385-6.967-8.471-4.645-15.156-11.281-20.053-19.907-4.765-8.627-7.148-18.78-7.148-30.459 0-11.679 2.383-21.765 7.148-30.259 4.765-8.626 11.383-15.262 19.855-19.907 8.603-4.645 18.465-6.967 29.583-6.967 10.987 0 20.716 2.256 29.187 6.768 8.472 4.512 15.09 11.015 19.855 19.509 4.765 8.361 7.148 18.248 7.148 29.662Zm-39.71-9.755c0-4.777-1.588-8.493-4.765-11.148-3.177-2.787-7.148-4.18-11.913-4.18-4.765 0-8.67 1.327-11.714 3.981-3.045 2.522-5.03 6.304-5.957 11.347h34.349Zm48.15 6.57c0-11.546 2.052-21.633 6.155-30.259 4.236-8.627 9.927-15.262 17.075-19.908 7.28-4.645 15.355-6.967 24.223-6.967 7.677 0 14.296 1.526 19.855 4.579 5.559 3.052 9.861 7.166 12.906 12.342v-15.528h38.915l.155 113.074h-38.761l-.309-16.921c-3.045 5.176-7.413 9.29-13.105 12.342-5.559 3.053-12.111 4.579-19.656 4.579-8.868 0-16.943-2.323-24.223-6.968-7.148-4.645-12.839-11.281-17.075-19.907-4.103-8.759-6.155-18.912-6.155-30.458Zm80.214 0c0-7.167-1.986-12.807-5.957-16.921-3.838-4.115-8.604-6.172-14.295-6.172-5.824 0-10.656 2.057-14.494 6.172-3.839 3.981-5.758 9.621-5.758 16.921 0 7.166 1.919 12.873 5.758 17.12 3.838 4.114 8.67 6.171 14.494 6.171 5.691 0 10.457-2.057 14.295-6.171 3.971-4.114 5.957-9.821 5.957-17.12Zm131.914 60.319-30.775-45.787v45.787h-38.916V102h38.916v79.43l30.775-43.796h46.659l-43.88 56.139L664 249.314h-47.453Zm-224.061 19.078v132.234h-39.021V370.5c-3.301 5.038-7.856 9.149-13.667 12.331-5.81 3.049-12.478 4.574-20.005 4.574-12.941 0-23.174-4.243-30.701-12.728-7.395-8.619-11.092-26.732-11.092-41.449v-64.836h38.624v59.864c0 6.364 1.637 15.032 4.938 18.744 3.433 3.58 7.923 5.37 13.469 5.37 5.678 0 10.168-1.79 13.469-5.37 3.301-3.712 4.965-12.38 4.965-18.744v-59.864h39.021Zm60.916 15.513c3.037-5.171 7.329-9.281 12.875-12.331 5.546-3.049 12.082-4.574 19.609-4.574 8.847 0 16.836 2.32 23.966 6.961 7.263 4.64 12.941 11.27 17.035 19.888 4.225 8.618 6.338 18.695 6.338 30.23s-2.113 21.678-6.338 30.429c-4.094 8.618-9.772 15.248-17.035 19.888-7.13 4.641-15.119 6.961-23.966 6.961-7.527 0-14.063-1.525-19.609-4.574-5.414-3.05-9.706-7.16-12.875-12.331V433h-38.97V268.37h38.97v15.535Zm40.407 40.174c0-7.292-1.981-12.927-5.943-16.905-3.829-4.11-8.583-6.165-14.261-6.165-5.678 0-10.498 2.055-14.459 6.165-3.829 4.11-5.744 9.745-5.744 16.905 0 7.292 1.915 12.994 5.744 17.104 3.961 4.11 8.781 6.165 14.459 6.165 5.678 0 10.432-2.055 14.261-6.165 3.962-4.243 5.943-9.944 5.943-17.104ZM591 346.553l-21.194 58.073h-24.561l10.3-58.073H591Z" fill="#F1F1F1"/>
  <path d="M139 503.718c0-11.536 2.041-21.613 6.123-30.232 4.213-8.619 9.941-15.248 17.184-19.889 7.242-4.641 15.274-6.962 24.096-6.962 7.111 0 13.431 1.525 18.961 4.575 5.662 2.917 10.073 6.961 13.234 12.133V268h38.91v293h-38.91v-16.906c-3.029 5.171-7.308 9.282-12.839 12.331-5.53 3.05-12.048 4.575-19.553 4.575-8.823 0-16.855-2.32-24.097-6.961-7.11-4.641-12.773-11.271-16.986-19.89-4.082-8.751-6.123-18.895-6.123-30.431Zm79.795 0c0-7.16-1.975-12.795-5.925-16.906-3.819-4.11-8.559-6.166-14.221-6.166-5.794 0-10.6 2.056-14.419 6.166-3.818 3.978-5.727 9.613-5.727 16.906 0 7.16 1.909 12.862 5.727 17.105 3.819 4.111 8.625 6.166 14.419 6.166 5.662 0 10.402-2.055 14.221-6.166 3.95-4.11 5.925-9.812 5.925-17.105ZM297.214 436c-6.847 0-12.378-2.171-16.591-5.884-4.082-3.845-6.123-8.619-6.123-14.32 0-5.835 2.041-9.951 6.123-13.796 4.213-3.845 9.744-5.5 16.591-5.5 6.715 0 12.114 1.655 16.196 5.5 4.214 3.845 6.32 7.961 6.32 13.796 0 5.701-2.106 10.475-6.32 14.32-4.082 3.713-9.481 5.884-16.196 5.884Zm19.159 17.597V561H277.66V453.597h38.713Zm17.632 50.121c0-11.536 2.041-21.613 6.123-30.232 4.214-8.619 9.876-15.248 16.986-19.889 7.243-4.641 15.275-6.962 24.097-6.962 7.637 0 14.221 1.525 19.751 4.575 5.531 3.05 9.81 7.16 12.839 12.331l-.154-12.331h38.866V561h-38.712v-16.906c-3.029 5.171-7.374 9.282-13.036 12.331-5.531 3.05-12.048 4.575-19.554 4.575-8.822 0-16.854-2.32-24.097-6.961-7.11-4.641-12.772-11.271-16.986-19.89-4.082-8.751-6.123-18.895-6.123-30.431Zm79.796 0c0-7.16-1.975-12.795-5.926-16.906-3.818-4.11-8.559-6.166-14.221-6.166-5.793 0-10.6 2.056-14.418 6.166-3.819 3.978-5.728 9.613-5.728 16.906 0 7.16 1.909 12.862 5.728 17.105 3.818 4.111 8.625 6.166 14.418 6.166 5.662 0 10.403-2.055 14.221-6.166 3.951-4.11 5.926-9.812 5.926-17.105ZM498.5 565.5c-7.167 0-12.583-2.083-16.25-6.25-3.5-4.333-5.25-9.5-5.25-15.5 0-6.167 1.833-11.333 5.5-15.5 3.833-4.167 9.167-6.25 16-6.25s12.25 1.75 16.25 5.25 6 8.75 6 15.75-1.917 12.5-5.75 16.5c-3.667 4-9.167 6-16.5 6Z" fill="#FF7272"/>
</svg>
