<svg width="175" height="75" viewBox="0 0 175 75" fill="none" xmlns="http://www.w3.org/2000/svg">
<path d="M23.72 12.57C23.72 10.83 24.08 9.30996 24.8 8.00996C25.52 6.70996 26.52 5.70997 27.8 5.00996C29.1 4.30997 30.58 3.95997 32.24 3.95997C34.38 3.95997 36.18 4.54997 37.64 5.72997C39.1 6.88997 40.04 8.51997 40.46 10.62H34.22C33.86 9.51997 33.16 8.96997 32.12 8.96997C31.38 8.96997 30.79 9.27997 30.35 9.89997C29.93 10.5 29.72 11.39 29.72 12.57C29.72 13.75 29.93 14.65 30.35 15.27C30.79 15.89 31.38 16.2 32.12 16.2C33.18 16.2 33.88 15.65 34.22 14.55H40.46C40.04 16.63 39.1 18.26 37.64 19.44C36.18 20.62 34.38 21.21 32.24 21.21C30.58 21.21 29.1 20.86 27.8 20.16C26.52 19.46 25.52 18.46 24.8 17.16C24.08 15.86 23.72 14.33 23.72 12.57Z" fill="#F1F1F1"/>
<path d="M48.7826 7.13997C49.4426 6.17997 50.2426 5.41997 51.1826 4.85997C52.1226 4.29997 53.1326 4.01997 54.2126 4.01997V10.29H52.5626C51.2826 10.29 50.3326 10.54 49.7126 11.04C49.0926 11.54 48.7826 12.41 48.7826 13.65V29H42.9026V4.16996H48.7826V7.13997Z" fill="#F1F1F1"/>
<path d="M72.4006 12.39C72.4006 12.85 72.3706 13.31 72.3106 13.77H61.1806C61.2406 14.69 61.4906 15.38 61.9306 15.84C62.3906 16.28 62.9706 16.5 63.6706 16.5C64.6506 16.5 65.3506 16.06 65.7706 15.18H72.0406C71.7806 16.34 71.2706 17.38 70.5106 18.3C69.7706 19.2 68.8306 19.91 67.6906 20.43C66.5506 20.95 65.2906 21.21 63.9106 21.21C62.2506 21.21 60.7706 20.86 59.4706 20.16C58.1906 19.46 57.1806 18.46 56.4406 17.16C55.7206 15.86 55.3606 14.33 55.3606 12.57C55.3606 10.81 55.7206 9.28997 56.4406 8.00996C57.1606 6.70996 58.1606 5.70997 59.4406 5.00996C60.7406 4.30997 62.2306 3.95997 63.9106 3.95997C65.5706 3.95997 67.0406 4.29997 68.3206 4.97997C69.6006 5.65997 70.6006 6.63997 71.3206 7.91997C72.0406 9.17997 72.4006 10.67 72.4006 12.39ZM66.4006 10.92C66.4006 10.2 66.1606 9.63997 65.6806 9.23997C65.2006 8.81997 64.6006 8.60997 63.8806 8.60997C63.1606 8.60997 62.5706 8.80997 62.1106 9.20997C61.6506 9.58997 61.3506 10.16 61.2106 10.92H66.4006Z" fill="#F1F1F1"/>
<path d="M73.8469 12.57C73.8469 10.83 74.1569 9.30996 74.7769 8.00996C75.4169 6.70996 76.2769 5.70997 77.3569 5.00996C78.4569 4.30997 79.6769 3.95997 81.0169 3.95997C82.1769 3.95997 83.1769 4.18997 84.0169 4.64997C84.8569 5.10997 85.5069 5.72997 85.9669 6.50997V4.16996H91.8469V21H85.9669V18.66C85.5069 19.44 84.8469 20.06 83.9869 20.52C83.1469 20.98 82.1569 21.21 81.0169 21.21C79.6769 21.21 78.4569 20.86 77.3569 20.16C76.2769 19.46 75.4169 18.46 74.7769 17.16C74.1569 15.84 73.8469 14.31 73.8469 12.57ZM85.9669 12.57C85.9669 11.49 85.6669 10.64 85.0669 10.02C84.4869 9.39997 83.7669 9.08997 82.9069 9.08997C82.0269 9.08997 81.2969 9.39997 80.7169 10.02C80.1369 10.62 79.8469 11.47 79.8469 12.57C79.8469 13.65 80.1369 14.51 80.7169 15.15C81.2969 15.77 82.0269 16.08 82.9069 16.08C83.7669 16.08 84.4869 15.77 85.0669 15.15C85.6669 14.53 85.9669 13.67 85.9669 12.57Z" fill="#F1F1F1"/>
<path d="M105.128 15.99V21H102.578C98.2775 21 96.1275 18.87 96.1275 14.61V9.05997H94.0575V4.16996H96.1275V0.0899658H102.038V4.16996H105.098V9.05997H102.038V14.7C102.038 15.16 102.138 15.49 102.338 15.69C102.558 15.89 102.918 15.99 103.418 15.99H105.128Z" fill="#F1F1F1"/>
<path d="M123.905 12.39C123.905 12.85 123.874 13.31 123.814 13.77H112.685C112.745 14.69 112.995 15.38 113.435 15.84C113.895 16.28 114.474 16.5 115.174 16.5C116.154 16.5 116.854 16.06 117.274 15.18H123.545C123.285 16.34 122.775 17.38 122.015 18.3C121.275 19.2 120.335 19.91 119.195 20.43C118.055 20.95 116.795 21.21 115.415 21.21C113.755 21.21 112.275 20.86 110.975 20.16C109.695 19.46 108.685 18.46 107.945 17.16C107.225 15.86 106.865 14.33 106.865 12.57C106.865 10.81 107.225 9.28997 107.945 8.00996C108.665 6.70996 109.665 5.70997 110.945 5.00996C112.245 4.30997 113.735 3.95997 115.415 3.95997C117.075 3.95997 118.545 4.29997 119.825 4.97997C121.105 5.65997 122.105 6.63997 122.825 7.91997C123.545 9.17997 123.905 10.67 123.905 12.39ZM117.905 10.92C117.905 10.2 117.665 9.63997 117.185 9.23997C116.705 8.81997 116.104 8.60997 115.384 8.60997C114.664 8.60997 114.075 8.80997 113.615 9.20997C113.155 9.58997 112.855 10.16 112.715 10.92H117.905Z" fill="#F1F1F1"/>
<path d="M80.5501 30.1699L76.2601 48.9999H69.6601L67.3201 34.7999L64.8901 48.9999H58.3201L54.0601 24.1699H59.9101L61.8001 37.3299L64.2901 27.1699H70.5901L73.1701 41.3599L75.0301 30.1699H80.5501Z" fill="#FF7272"/>
<path d="M85.193 30.6099C84.153 30.6099 83.313 30.3299 82.673 29.7699C82.053 29.1899 81.743 28.4699 81.743 27.6099C81.743 26.7299 82.053 25.9999 82.673 25.4199C83.313 24.8399 84.153 24.5499 85.193 24.5499C86.213 24.5499 87.033 24.8399 87.653 25.4199C88.293 25.9999 88.613 26.7299 88.613 27.6099C88.613 28.4699 88.293 29.1899 87.653 29.7699C87.033 30.3299 86.213 30.6099 85.193 30.6099ZM88.103 32.1699V48.9999H82.223V32.1699H88.103Z" fill="#FF7272"/>
<path d="M101.382 43.9899V48.9999H98.8315C94.5315 48.9999 92.3815 46.8699 92.3815 42.6099V37.0599H90.3115V32.1699H92.3815V28.0899H98.2915V32.1699H101.352V37.0599H98.2915V42.6999C98.2915 43.1599 98.3915 43.4899 98.5915 43.6899C98.8115 43.8899 99.1715 43.9899 99.6715 43.9899H101.382Z" fill="#FF7272"/>
<path d="M115.148 32.0199C117.068 32.0199 118.588 32.6699 119.708 33.9699C120.848 35.2499 121.418 36.9899 121.418 39.1899V48.9999H115.538V39.9699C115.538 39.0099 115.288 38.2599 114.788 37.7199C114.288 37.1599 113.618 36.8799 112.778 36.8799C111.898 36.8799 111.208 37.1599 110.708 37.7199C110.208 38.2599 109.958 39.0099 109.958 39.9699V48.9999H104.078V26.7999H109.958V34.5699C110.478 33.8099 111.178 33.1999 112.058 32.7399C112.958 32.2599 113.988 32.0199 115.148 32.0199Z" fill="#FF7272"/>
<path d="M132.475 49.2099C130.795 49.2099 129.285 48.8599 127.945 48.1599C126.625 47.4599 125.585 46.4599 124.825 45.1599C124.065 43.8599 123.685 42.3299 123.685 40.5699C123.685 38.8299 124.065 37.3099 124.825 36.0099C125.605 34.7099 126.655 33.7099 127.975 33.0099C129.315 32.3099 130.825 31.9599 132.505 31.9599C134.185 31.9599 135.685 32.3099 137.005 33.0099C138.345 33.7099 139.395 34.7099 140.155 36.0099C140.935 37.3099 141.325 38.8299 141.325 40.5699C141.325 42.3099 140.935 43.8399 140.155 45.1599C139.395 46.4599 138.345 47.4599 137.005 48.1599C135.665 48.8599 134.155 49.2099 132.475 49.2099ZM132.475 44.1099C133.295 44.1099 133.975 43.8099 134.515 43.2099C135.075 42.5899 135.355 41.7099 135.355 40.5699C135.355 39.4299 135.075 38.5599 134.515 37.9599C133.975 37.3599 133.305 37.0599 132.505 37.0599C131.705 37.0599 131.035 37.3599 130.495 37.9599C129.955 38.5599 129.685 39.4299 129.685 40.5699C129.685 41.7299 129.945 42.6099 130.465 43.2099C130.985 43.8099 131.655 44.1099 132.475 44.1099Z" fill="#FF7272"/>
<path d="M160.937 32.1699V48.9999H155.027V46.5999C154.527 47.3599 153.837 47.9799 152.957 48.4599C152.077 48.9199 151.067 49.1499 149.927 49.1499C147.967 49.1499 146.417 48.5099 145.277 47.2299C144.157 45.9299 143.597 44.1699 143.597 41.9499V32.1699H149.447V41.1999C149.447 42.1599 149.697 42.9199 150.197 43.4799C150.717 44.0199 151.397 44.2899 152.237 44.2899C153.097 44.2899 153.777 44.0199 154.277 43.4799C154.777 42.9199 155.027 42.1599 155.027 41.1999V32.1699H160.937Z" fill="#FF7272"/>
<path d="M174.214 56.9899V61.9999H171.664C167.364 61.9999 165.214 59.8699 165.214 55.6099V37.0599H163.144V32.1699H165.214V28.0899H171.124V32.1699H174.184V37.0599H171.124V55.6999C171.124 56.1599 171.224 56.4899 171.424 56.6899C171.644 56.8899 172.004 56.9899 172.504 56.9899H174.214Z" fill="#FF7272"/>
<path d="M0 55.02C0 53.28 0.36 51.76 1.08 50.46C1.8 49.16 2.8 48.16 4.08 47.46C5.38 46.76 6.86 46.41 8.52 46.41C10.66 46.41 12.46 47 13.92 48.18C15.38 49.34 16.32 50.97 16.74 53.07H10.5C10.14 51.97 9.44 51.42 8.4 51.42C7.66 51.42 7.07 51.73 6.63 52.35C6.21 52.95 6 53.84 6 55.02C6 61.62 6.21 68.1 6.63 68.72C7.07 69.34 7.66 69.65 8.4 69.65C9.46 69.65 10.16 69.1 10.5 68H16.74C16.32 70.08 15.38 71.71 13.92 72.89C12.46 74.07 10.66 74.66 8.52 74.66C6.86 74.66 5.38 74.31 4.08 73.61C2.8 72.91 1.8 71.91 1.08 70.61C0.36 69.31 0 56.78 0 55.02Z" fill="#FF7272"/>
<path d="M27.0127 74.66C25.3327 74.66 23.8227 74.31 22.4827 73.61C21.1627 72.91 20.1227 71.91 19.3627 70.61C18.6027 69.31 18.2227 59.78 18.2227 58.02C18.2227 56.28 18.6027 54.76 19.3627 53.46C20.1427 52.16 21.1927 51.16 22.5127 50.46C23.8527 49.76 25.3627 49.41 27.0427 49.41C28.7227 49.41 30.2227 49.76 31.5427 50.46C32.8827 51.16 33.9327 52.16 34.6927 53.46C35.4727 54.76 35.8627 56.28 35.8627 58.02C35.8627 59.76 35.4727 69.29 34.6927 70.61C33.9327 71.91 32.8827 72.91 31.5427 73.61C30.2027 74.31 28.6927 74.66 27.0127 74.66ZM27.0127 69.56C27.8327 69.56 28.5127 69.26 29.0527 68.66C29.6127 68.04 29.8927 62.5 29.8927 58.02C29.8927 56.88 29.6127 56.01 29.0527 55.41C28.5127 54.81 27.8427 54.51 27.0427 54.51C26.2427 54.51 25.5727 54.81 25.0327 55.41C24.4927 56.01 24.2227 56.88 24.2227 58.02C24.2227 62.5 24.4827 68.06 25.0027 68.66C25.5227 69.26 26.1927 69.56 27.0127 69.56Z" fill="#FF7272"/>
<path d="M49.2649 53.47C51.2049 53.47 52.7449 54.12 53.8849 55.42C55.0249 56.7 55.5949 58.39 55.5949 60.59V74.45H49.7149V61.42C49.7149 60.46 49.4649 59.71 48.9649 59.17C48.4649 58.61 47.7949 58.33 46.9549 58.33C46.0749 58.33 45.3849 58.61 44.8849 59.17C44.3849 59.71 44.1349 60.46 44.1349 61.42V74.45H38.2549V53.62H44.1349V56.02C44.6549 55.26 45.3549 54.65 46.2349 54.19C47.1149 53.71 48.1249 53.47 49.2649 53.47Z" fill="#FF7272"/>
<path d="M65.9913 74.66C64.4713 74.66 63.1113 74.41 61.9113 73.91C60.7313 73.39 59.7913 72.69 59.0913 71.81C58.4113 70.91 58.0313 69.9 57.9513 68.78H63.6513C63.7313 69.32 63.9813 69.74 64.4013 70.04C64.8213 70.34 65.3413 70.49 65.9613 70.49C66.4413 70.49 66.8213 70.39 67.1013 70.19C67.3813 69.99 67.5213 69.73 67.5213 69.41C67.5213 68.99 67.2913 68.68 66.8313 68.48C66.3713 68.28 65.6113 68.06 64.5513 67.82C63.3513 67.58 62.3513 67.31 61.5513 67.01C60.7513 66.71 60.0513 66.22 59.4513 65.54C58.5813 64.554 58.5 63.5 58.5813 61.78C58.5813 60.78 58.8513 59.88 59.3913 59.08C59.9313 58.26 60.7213 57.61 61.7613 57.13C62.8213 56.65 64.0913 56.41 65.5713 56.41C67.7713 56.41 69.5013 56.95 70.7613 58.03C72.0213 59.11 72.7513 60.53 72.9513 62.29H67.6413C67.5413 61.75 67.3013 61.34 66.9213 61.06C66.5613 60.76 66.0713 60.61 65.4513 60.61C64.9713 60.61 64.6013 60.7 64.3413 60.88C63.9448 61.1546 63.8 61.5 63.8 62C63.8 62.5 63.8835 63.2175 64.6713 63.56C65.1313 63.76 65.8713 63.97 66.8913 64.19C68.1113 64.45 69.1213 64.74 69.9213 65.06C70.7413 65.38 71.4513 65.9 72.0513 66.62C72.6713 67.32 72.9813 68.28 72.9813 69.5C72.9813 70.48 72.6913 71.36 72.1113 72.14C71.5513 72.92 70.7413 73.54 69.6813 74C68.6413 74.44 67.4113 74.66 65.9913 74.66Z" fill="#FF7272"/>
<path d="M85.8021 69.44V74.45H83.2521C78.9521 74.45 76.8021 72.32 76.8021 68.06V62.51H74.7321V57.62H76.8021V53.54H82.7121V57.62H85.7721V62.51H82.7121V68.15C82.7121 68.61 82.8121 68.94 83.0121 69.14C83.2321 69.34 83.5921 69.44 84.0921 69.44H85.8021Z" fill="#FF7272"/>
<path d="M94.3791 60.59C95.0391 59.63 95.8391 58.87 96.7791 58.31C97.7191 57.75 98.7291 57.47 99.8091 57.47V63.74H98.1591C96.8791 63.74 95.9291 63.99 95.3091 64.49C94.6891 64.99 94.3791 65.86 94.3791 67.1V74.45H88.4991V57.62H94.3791V60.59Z" fill="#FF7272"/>
<path d="M100.957 66.02C100.957 64.28 101.267 62.76 101.887 61.46C102.527 60.16 103.387 59.16 104.467 58.46C105.567 57.76 106.787 57.41 108.127 57.41C109.287 57.41 110.287 57.64 111.127 58.1C111.967 58.56 112.617 59.18 113.077 59.96V57.62H118.957V74.45H113.077V72.11C112.617 72.89 111.957 73.51 111.097 73.97C110.257 74.43 109.267 74.66 108.127 74.66C106.787 74.66 105.567 74.31 104.467 73.61C103.387 72.91 102.527 71.91 101.887 70.61C101.267 69.29 100.957 67.76 100.957 66.02ZM113.077 66.02C113.077 64.94 112.777 64.09 112.177 63.47C111.597 62.85 110.877 62.54 110.017 62.54C109.137 62.54 108.407 62.85 107.827 63.47C107.247 64.07 106.957 64.92 106.957 66.02C106.957 67.1 107.247 67.96 107.827 68.6C108.407 69.22 109.137 69.53 110.017 69.53C110.877 69.53 111.597 69.22 112.177 68.6C112.777 67.98 113.077 67.12 113.077 66.02Z" fill="#FF7272"/>
<path d="M125.278 56.06C124.238 56.06 123.64 55.78 123 55.22C122.38 54.64 122 53.92 122 53.06C122 52.18 122.38 51.65 123 51.07C123.64 50.49 124.238 50.2 125.278 50.2C126.298 50.2 126.88 50.49 127.5 51.07C128.14 51.65 128.5 52.18 128.5 53.06C128.5 53.92 128.14 54.64 127.5 55.22C126.88 55.78 126.298 56.06 125.278 56.06ZM128.188 57.62V74.45H122.308V57.62H128.188Z" fill="#FF7272"/>
<path d="M142.546 57.47C144.486 57.47 146.026 58.12 147.166 59.42C148.306 60.7 148.876 62.44 148.876 64.64V74.45H142.996V65.42C142.996 64.46 142.746 63.71 142.246 63.17C141.746 62.61 141.076 62.33 140.236 62.33C139.356 62.33 138.666 62.61 138.166 63.17C137.666 63.71 137.416 64.46 137.416 65.42V74.45H131.536V57.62H137.416V60.02C137.936 59.26 138.636 58.65 139.516 58.19C140.396 57.71 141.406 57.47 142.546 57.47Z" fill="#FF7272"/>
<path d="M162.033 69.44V74.45H159.483C155.183 74.45 153.033 72.32 153.033 68.06V62.51H150.963V57.62H153.033V53.54H158.943V57.62H162.003V62.51H158.943V68.15C158.943 68.61 159.043 68.94 159.243 69.14C159.463 69.34 159.823 69.44 160.323 69.44H162.033Z" fill="#FF7272"/>
<path d="M167.58 74.69C166.54 74.69 165.7 74.41 165.06 73.85C164.44 73.27 164.13 72.54 164.13 71.66C164.13 70.78 164.44 70.05 165.06 69.47C165.7 68.89 166.54 68.6 167.58 68.6C168.6 68.6 169.42 68.89 170.04 69.47C170.68 70.05 171 70.78 171 71.66C171 72.52 170.68 73.24 170.04 73.82C169.42 74.4 168.6 74.69 167.58 74.69Z" fill="#FF7272"/>
</svg>
