<svg className="speak-up" width="246" height="87" viewBox="0 0 246 87" fill="none" xmlns="http://www.w3.org/2000/svg">
<path d="M11.2376 6.13035C13.0243 6.13035 14.5759 6.49468 15.8925 7.22336C17.2404 7.95203 18.2748 8.93415 18.9957 10.1697V6.463H28.2115V56.5988C28.2115 59.1016 27.7413 61.351 26.8009 63.3469C25.8605 65.3745 24.3873 66.9903 22.3811 68.1942C20.4063 69.398 17.8986 70 14.8581 70C10.7831 70 7.52306 69.0337 5.07807 67.1012C2.63307 65.1686 1.23817 62.539 0.893364 59.2125H9.96806C10.1561 60.0679 10.6263 60.7332 11.3786 61.2084C12.1309 61.6836 13.1027 61.9212 14.2938 61.9212C17.4284 61.9212 18.9957 60.1471 18.9957 56.5988V29.4162C18.2748 30.6517 17.2404 31.6339 15.8925 32.3625C14.5759 33.0912 13.0243 33.4555 11.2376 33.4555C9.13739 33.4555 7.22528 32.9011 5.50124 31.7923C3.80855 30.6834 2.46067 29.0993 1.45759 27.0401C0.485865 24.9491 0 22.5255 0 19.7692C0 17.0129 0.485865 14.6051 1.45759 12.5458C2.46067 10.4865 3.80855 8.90247 5.50124 7.79362C7.22528 6.68477 9.13739 6.13035 11.2376 6.13035ZM18.9957 19.7692C18.9957 18.0584 18.5255 16.7119 17.5852 15.7298C16.6761 14.7477 15.5477 14.2566 14.1998 14.2566C12.8206 14.2566 11.6764 14.7477 10.7674 15.7298C9.85835 16.6802 9.40383 18.0267 9.40383 19.7692C9.40383 21.48 9.85835 22.8423 10.7674 23.8561C11.6764 24.8382 12.8206 25.3293 14.1998 25.3293C15.5477 25.3293 16.6761 24.8382 17.5852 23.8561C18.5255 22.874 18.9957 21.5117 18.9957 19.7692Z" fill="#F1F1F1"/>
<path d="M58.6652 19.484C58.6652 20.2127 58.6182 20.9414 58.5242 21.6701H41.08C41.1741 23.1274 41.5659 24.2204 42.2555 24.9491C42.9765 25.6461 43.8855 25.9946 44.9826 25.9946C46.5186 25.9946 47.6157 25.2976 48.274 23.9036H58.101C57.6935 25.7411 56.8942 27.3885 55.703 28.8459C54.5432 30.2716 53.0699 31.3962 51.2832 32.22C49.4965 33.0437 47.5217 33.4555 45.3588 33.4555C42.7571 33.4555 40.4375 32.9011 38.4 31.7923C36.3938 30.6834 34.8108 29.0993 33.651 27.0401C32.5226 24.9808 31.9583 22.5571 31.9583 19.7692C31.9583 16.9812 32.5226 14.5734 33.651 12.5458C34.7795 10.4865 36.3468 8.90247 38.3529 7.79362C40.3904 6.68477 42.7257 6.13035 45.3588 6.13035C47.9605 6.13035 50.2645 6.66893 52.2706 7.7461C54.2768 8.82326 55.8441 10.3757 56.9725 12.4033C58.101 14.3992 58.6652 16.7594 58.6652 19.484ZM49.2614 17.1555C49.2614 16.0149 48.8852 15.1279 48.1329 14.4942C47.3806 13.8289 46.4402 13.4963 45.3118 13.4963C44.1833 13.4963 43.2586 13.8131 42.5376 14.4467C41.8167 15.0487 41.3465 15.9516 41.1271 17.1555H49.2614Z" fill="#F1F1F1"/>
<path d="M78 37.5424V45.4786H74.0034C67.264 45.4786 63.8943 42.1045 63.8943 35.3564V14.2091H60.6499V6.463H63.8943V0H73.157V6.463H77.953V14.2091H73.157V35.499C73.157 36.2277 73.3138 36.7504 73.6272 37.0672C73.972 37.384 74.5363 37.5424 75.3199 37.5424H78Z" fill="#F1F1F1"/>
<path d="M38.4229 45.5125C36.7881 45.5125 35.4678 45.0729 34.4618 44.1939C33.4873 43.2835 33 42.1533 33 40.8033C33 39.422 33.4873 38.2761 34.4618 37.3657C35.4678 36.4552 36.7881 36 38.4229 36C40.0261 36 41.315 36.4552 42.2896 37.3657C43.2956 38.2761 43.7986 39.422 43.7986 40.8033C43.7986 42.1533 43.2956 43.2835 42.2896 44.1939C41.315 45.0729 40.0261 45.5125 38.4229 45.5125ZM42.9969 47.9612V74.3795H33.7545V47.9612H42.9969Z" fill="#FF7272"/>
<path d="M65.5662 47.7258C68.6156 47.7258 71.0363 48.7461 72.8282 50.7867C74.6201 52.7959 75.516 55.5272 75.516 58.9806V74.3795H66.2736V60.205C66.2736 58.6981 65.8806 57.5208 65.0947 56.6731C64.3088 55.7941 63.2556 55.3546 61.9353 55.3546C60.5521 55.3546 59.4675 55.7941 58.6816 56.6731C57.8957 57.5208 57.5027 58.6981 57.5027 60.205V74.3795H48.2603V47.9612H57.5027V51.7285C58.32 50.5355 59.4203 49.578 60.8036 48.856C62.1868 48.1025 63.7743 47.7258 65.5662 47.7258Z" fill="#FF7272"/>
<path d="M91.8575 74.7091C89.4683 74.7091 87.3306 74.3167 85.4444 73.5319C83.5896 72.7156 82.1121 71.6168 81.0118 70.2355C79.943 68.8227 79.3456 67.2373 79.2199 65.4792H88.1794C88.3052 66.3269 88.6981 66.9862 89.3583 67.4571C90.0185 67.928 90.8358 68.1634 91.8104 68.1634C92.5648 68.1634 93.1621 68.0065 93.6023 67.6925C94.0424 67.3786 94.2624 66.9705 94.2624 66.4681C94.2624 65.8089 93.9009 65.3223 93.1779 65.0083C92.4548 64.6944 91.2602 64.349 89.5941 63.9723C87.7079 63.5956 86.136 63.1717 84.8785 62.7008C83.6211 62.2299 82.5208 61.4608 81.5777 60.3934C80.666 59.3259 80.2102 57.8818 80.2102 56.0609C80.2102 54.4912 80.6346 53.0785 81.4834 51.8227C82.3322 50.5356 83.5739 49.5152 85.2086 48.7618C86.8748 48.0083 88.871 47.6316 91.1973 47.6316C94.6554 47.6316 97.3747 48.4792 99.3552 50.1745C101.336 51.8698 102.483 54.0988 102.798 56.8615H94.4511C94.2939 56.0139 93.9166 55.3703 93.3193 54.9307C92.7535 54.4598 91.9833 54.2244 91.0087 54.2244C90.2542 54.2244 89.6727 54.3657 89.264 54.6482C88.8867 54.9307 88.6981 55.3232 88.6981 55.8255C88.6981 56.4534 89.0596 56.94 89.7827 57.2853C90.5057 57.5993 91.6689 57.9289 93.2722 58.2742C95.1898 58.6824 96.7774 59.1376 98.0349 59.6399C99.3238 60.1422 100.44 60.9585 101.383 62.0886C102.357 63.1874 102.845 64.6944 102.845 66.6094C102.845 68.1477 102.389 69.5291 101.477 70.7535C100.597 71.9778 99.3238 72.9511 97.6576 73.6731C96.0229 74.3638 94.0895 74.7091 91.8575 74.7091Z" fill="#FF7272"/>
<path d="M116.631 51.6344C117.354 50.41 118.376 49.4368 119.696 48.7147C121.016 47.9926 122.573 47.6316 124.364 47.6316C126.471 47.6316 128.373 48.181 130.07 49.2798C131.799 50.3786 133.151 51.9483 134.126 53.9889C135.132 56.0295 135.635 58.4155 135.635 61.1468C135.635 63.8781 135.132 66.2798 134.126 68.3518C133.151 70.3924 131.799 71.9621 130.07 73.0609C128.373 74.1597 126.471 74.7091 124.364 74.7091C122.573 74.7091 121.016 74.3481 119.696 73.626C118.407 72.904 117.385 71.9307 116.631 70.7064V87H107.389V47.9612H116.631V51.6344ZM126.251 61.1468C126.251 59.4201 125.779 58.0859 124.836 57.144C123.924 56.1708 122.793 55.6842 121.441 55.6842C120.089 55.6842 118.942 56.1708 117.998 57.144C117.087 58.1173 116.631 59.4515 116.631 61.1468C116.631 62.8735 117.087 64.2235 117.998 65.1967C118.942 66.1699 120.089 66.6565 121.441 66.6565C122.793 66.6565 123.924 66.1699 124.836 65.1967C125.779 64.1921 126.251 62.8421 126.251 61.1468Z" fill="#FF7272"/>
<path d="M144.108 45.5125C142.473 45.5125 141.153 45.0729 140.147 44.1939C139.172 43.2835 138.685 42.1533 138.685 40.8033C138.685 39.422 139.172 38.2761 140.147 37.3657C141.153 36.4552 142.473 36 144.108 36C145.711 36 147 36.4552 147.975 37.3657C148.98 38.2761 149.483 39.422 149.483 40.8033C149.483 42.1533 148.98 43.2835 147.975 44.1939C147 45.0729 145.711 45.5125 144.108 45.5125ZM148.682 47.9612V74.3795H139.439V47.9612H148.682Z" fill="#FF7272"/>
<path d="M163.188 52.6233C164.225 51.1163 165.482 49.9234 166.96 49.0443C168.438 48.1653 170.025 47.7258 171.723 47.7258V57.5679H169.129C167.117 57.5679 165.624 57.9603 164.649 58.7452C163.675 59.53 163.188 60.8957 163.188 62.8421V74.3795H153.945V47.9612H163.188V52.6233Z" fill="#FF7272"/>
<path d="M200.311 60.8643C200.311 61.5863 200.264 62.3084 200.17 63.0305H182.675C182.77 64.4746 183.163 65.5577 183.854 66.2798C184.577 66.9705 185.489 67.3158 186.589 67.3158C188.13 67.3158 189.23 66.6251 189.89 65.2438H199.745C199.337 67.0646 198.535 68.6971 197.341 70.1413C196.177 71.554 194.7 72.6685 192.908 73.4848C191.116 74.301 189.136 74.7091 186.966 74.7091C184.357 74.7091 182.031 74.1597 179.987 73.0609C177.975 71.9621 176.388 70.3924 175.225 68.3518C174.093 66.3112 173.527 63.9095 173.527 61.1468C173.527 58.3841 174.093 55.9982 175.225 53.9889C176.356 51.9483 177.928 50.3786 179.94 49.2798C181.984 48.181 184.326 47.6316 186.966 47.6316C189.576 47.6316 191.886 48.1653 193.898 49.2327C195.91 50.3001 197.482 51.8384 198.614 53.8476C199.745 55.8255 200.311 58.1644 200.311 60.8643ZM190.88 58.5568C190.88 57.4266 190.503 56.5476 189.749 55.9197C188.994 55.2604 188.051 54.9307 186.919 54.9307C185.787 54.9307 184.86 55.2447 184.137 55.8726C183.414 56.4691 182.942 57.3638 182.722 58.5568H190.88Z" fill="#FF7272"/>
<path d="M202.585 61.1468C202.585 58.4155 203.072 56.0295 204.047 53.9889C205.053 51.9483 206.42 50.3786 208.149 49.2798C209.878 48.181 211.796 47.6316 213.902 47.6316C215.6 47.6316 217.109 47.9926 218.429 48.7147C219.781 49.4054 220.834 50.3629 221.588 51.5873V39.5319H230.878V74.3795H221.588V70.7064C220.865 71.9307 219.844 72.904 218.523 73.626C217.203 74.3481 215.647 74.7091 213.855 74.7091C211.749 74.7091 209.831 74.1597 208.102 73.0609C206.404 71.9621 205.053 70.3924 204.047 68.3518C203.072 66.2798 202.585 63.8781 202.585 61.1468ZM221.635 61.1468C221.635 59.4515 221.164 58.1173 220.221 57.144C219.309 56.1708 218.177 55.6842 216.826 55.6842C215.442 55.6842 214.295 56.1708 213.383 57.144C212.472 58.0859 212.016 59.4201 212.016 61.1468C212.016 62.8421 212.472 64.1921 213.383 65.1967C214.295 66.1699 215.442 66.6565 216.826 66.6565C218.177 66.6565 219.309 66.1699 220.221 65.1967C221.164 64.2235 221.635 62.8735 221.635 61.1468Z" fill="#FF7272"/>
<path d="M240.624 74.7562C238.99 74.7562 237.669 74.3167 236.663 73.4377C235.689 72.5272 235.201 71.3813 235.201 70C235.201 68.6187 235.689 67.4728 236.663 66.5623C237.669 65.6519 238.99 65.1967 240.624 65.1967C242.228 65.1967 243.516 65.6519 244.491 66.5623C245.497 67.4728 246 68.6187 246 70C246 71.35 245.497 72.4801 244.491 73.3906C243.516 74.301 242.228 74.7562 240.624 74.7562Z" fill="#FF7272"/>
</svg>