<svg width="100" height="74" viewBox="0 0 100 74" fill="none" xmlns="http://www.w3.org/2000/svg">
<g clip-path="url(#clip0_57_31)">
<path d="M8.47312 23.6252C6.87123 23.6252 5.43798 23.3616 4.17332 22.8345C2.92976 22.2863 1.93912 21.5484 1.20141 20.6207C0.48478 19.6719 0.0843097 18.6071 0 17.4264H6.00705C6.09136 17.9956 6.35484 18.4384 6.79747 18.7547C7.24009 19.071 7.78809 19.2291 8.44149 19.2291C8.94736 19.2291 9.34782 19.1237 9.6429 18.9128C9.938 18.702 10.0855 18.4279 10.0855 18.0905C10.0855 17.6478 9.84314 17.321 9.35837 17.1101C8.87358 16.8993 8.07264 16.6673 6.95554 16.4143C5.6909 16.1613 4.63703 15.8767 3.79393 15.5604C2.95084 15.2441 2.21312 14.7275 1.5808 14.0107C0.96956 13.2938 0.663938 12.3239 0.663938 11.101C0.663938 10.0468 0.948484 9.09798 1.51757 8.25461C2.08666 7.39015 2.91921 6.7049 4.01525 6.19888C5.13235 5.69283 6.47077 5.43982 8.03048 5.43982C10.349 5.43982 12.1722 6.00911 13.5001 7.14767C14.828 8.28624 15.5973 9.78324 15.808 11.6387H10.212C10.1066 11.0694 9.85369 10.6372 9.45321 10.342C9.07382 10.0257 8.55743 9.86757 7.90402 9.86757C7.39818 9.86757 7.00824 9.96244 6.73422 10.1522C6.4813 10.342 6.35484 10.6055 6.35484 10.9429C6.35484 11.3646 6.59723 11.6914 7.082 11.9233C7.56679 12.1342 8.34666 12.3556 9.4216 12.5875C10.7073 12.8616 11.7717 13.1673 12.6148 13.5046C13.479 13.842 14.2273 14.3902 14.8596 15.1493C15.513 15.8872 15.8397 16.8993 15.8397 18.1854C15.8397 19.2185 15.534 20.1463 14.9228 20.9686C14.3326 21.7909 13.479 22.4445 12.3619 22.9295C11.2659 23.3932 9.9696 23.6252 8.47312 23.6252Z" fill="#F1F1F1"/>
<path d="M25.0829 8.1281C25.5677 7.30581 26.2528 6.65218 27.1381 6.16723C28.0234 5.6823 29.0666 5.43982 30.268 5.43982C31.6803 5.43982 32.9554 5.80881 34.0937 6.54676C35.2528 7.28472 36.1592 8.33895 36.8126 9.70943C37.4871 11.0799 37.8242 12.6823 37.8242 14.5167C37.8242 16.3511 37.4871 17.964 36.8126 19.3556C36.1592 20.7261 35.2528 21.7803 34.0937 22.5182C32.9554 23.2563 31.6803 23.6252 30.268 23.6252C29.0666 23.6252 28.0234 23.3827 27.1381 22.8979C26.2739 22.4129 25.5888 21.7592 25.0829 20.9369V51.7917H18.8862V5.66121H25.0829V8.1281ZM31.5326 14.5167C31.5326 13.3571 31.2165 12.461 30.5842 11.8284C29.973 11.1748 29.2141 10.848 28.3077 10.848C27.4016 10.848 26.6321 11.1748 25.9998 11.8284C25.3886 12.482 25.0829 13.3782 25.0829 14.5167C25.0829 15.6763 25.3886 16.583 25.9998 17.2366C26.6321 17.8902 27.4016 18.217 28.3077 18.217C29.2141 18.217 29.973 17.8902 30.5842 17.2366C31.2165 16.5619 31.5326 15.6553 31.5326 14.5167Z" fill="#F1F1F1"/>
<path d="M57.3215 14.327C57.3215 14.8119 57.2899 15.2968 57.2266 15.7818H45.4971C45.5602 16.7517 45.8237 17.4791 46.2875 17.964C46.7723 18.4279 47.3835 18.6598 48.1211 18.6598C49.1541 18.6598 49.8917 18.1959 50.3343 17.2682H56.942C56.6681 18.4911 56.1306 19.5875 55.3297 20.5574C54.5499 21.5062 53.5591 22.2547 52.3578 22.8029C51.1563 23.3511 49.8284 23.6252 48.3741 23.6252C46.6246 23.6252 45.0651 23.2563 43.695 22.5182C42.3459 21.7803 41.2815 20.7261 40.5018 19.3556C39.7429 17.9851 39.3635 16.3722 39.3635 14.5167C39.3635 12.6613 39.7429 11.0588 40.5018 9.70943C41.2604 8.33895 42.3143 7.28472 43.6633 6.54676C45.0334 5.80881 46.6035 5.43982 48.3741 5.43982C50.1235 5.43982 51.6728 5.79826 53.0218 6.51513C54.3706 7.23201 55.4246 8.26515 56.1833 9.61456C56.942 10.9429 57.3215 12.5137 57.3215 14.327ZM50.9983 12.7772C50.9983 12.0182 50.7453 11.4278 50.2396 11.0061C49.7336 10.5634 49.1013 10.342 48.3424 10.342C47.5837 10.342 46.962 10.5528 46.4771 10.9745C45.9923 11.3751 45.6763 11.976 45.5286 12.7772H50.9983Z" fill="#F1F1F1"/>
<path d="M58.6655 13.8209C58.6655 11.9865 58.9921 10.3841 59.6455 9.01363C60.32 7.64315 61.2264 6.58892 62.3646 5.85096C63.5238 5.11299 64.8095 4.74402 66.2218 4.74402C67.4442 4.74402 68.4981 4.9865 69.3833 5.47143C70.2686 5.95638 70.9537 6.60999 71.4383 7.43229V4.96541H77.6352L77.6598 22.9295H71.4875L71.4383 20.2411C70.9537 21.0634 70.2581 21.717 69.3517 22.202C68.4664 22.687 67.4231 22.9295 66.2218 22.9295C64.8095 22.9295 63.5238 22.5603 62.3646 21.8225C61.2264 21.0845 60.32 20.0303 59.6455 18.6598C58.9921 17.2682 58.6655 15.6553 58.6655 13.8209ZM71.4383 13.8209C71.4383 12.6823 71.1222 11.7862 70.4899 11.1326C69.8787 10.479 69.1198 10.1522 68.2134 10.1522C67.2862 10.1522 66.5167 10.479 65.9055 11.1326C65.2943 11.7652 64.9886 12.6613 64.9886 13.8209C64.9886 14.9595 65.2943 15.8661 65.9055 16.5408C66.5167 17.1944 67.2862 17.5212 68.2134 17.5212C69.1198 17.5212 69.8787 17.1944 70.4899 16.5408C71.1222 15.8872 71.4383 14.9805 71.4383 13.8209Z" fill="#F1F1F1"/>
<path d="M92.4438 23.4037L87.5434 16.1297V23.4037H81.3467V0H87.5434V12.6191L92.4438 5.66119H99.8737L92.8865 14.5799L100 23.4037H92.4438Z" fill="#F1F1F1"/>
<path d="M56.7096 26.338V47.4908H50.49V42.6717C49.9638 43.4776 49.2377 44.1351 48.3118 44.6442C47.3856 45.132 46.3227 45.3759 45.123 45.3759C43.0603 45.3759 41.4291 44.6971 40.2293 43.3397C39.0507 41.9611 38.4614 39.0636 38.4614 36.7093V26.338H44.6179V35.914C44.6179 36.9321 44.8788 38.3186 45.4049 38.9124C45.9522 39.4852 46.6678 39.7714 47.5518 39.7714C48.4568 39.7714 49.1724 39.4852 49.6986 38.9124C50.2249 38.3186 50.49 36.9321 50.49 35.914V26.338H56.7096Z" fill="#F1F1F1"/>
<path d="M66.4194 28.8195C66.9036 27.9924 67.5876 27.3349 68.4717 26.847C69.3557 26.3592 70.3975 26.1154 71.5972 26.1154C73.0073 26.1154 74.2807 26.4865 75.4175 27.2289C76.575 27.9711 77.4801 29.0317 78.1324 30.4103C78.806 31.789 79.1427 33.4009 79.1427 35.2461C79.1427 37.0913 78.806 38.7137 78.1324 40.1136C77.4801 41.4922 76.575 42.5526 75.4175 43.2951C74.2807 44.0373 73.0073 44.4086 71.5972 44.4086C70.3975 44.4086 69.3557 44.1646 68.4717 43.6767C67.6087 43.1891 66.9247 42.5316 66.4194 41.7042V52.6696H60.208V26.3346H66.4194V28.8195ZM72.8601 35.2461C72.8601 34.0794 72.5443 33.1781 71.9128 32.5419C71.3025 31.8844 70.5449 31.5557 69.6399 31.5557C68.7348 31.5557 67.9665 31.8844 67.335 32.5419C66.7247 33.1994 66.4194 34.1007 66.4194 35.2461C66.4194 36.4125 66.7247 37.3245 67.335 37.982C67.9665 38.6395 68.7348 38.9683 69.6399 38.9683C70.5449 38.9683 71.3025 38.6395 71.9128 37.982C72.5443 37.3032 72.8601 36.3914 72.8601 35.2461Z" fill="#F1F1F1"/>
<path d="M88.3516 38.8409L84.9733 48.1308H81.0586L82.7004 38.8409H88.3516Z" fill="#F1F1F1"/>
<path d="M16.4834 63.7639C16.4834 61.9321 16.8082 60.332 17.4577 58.9633C18.1283 57.5948 19.0397 56.542 20.1922 55.8051C21.3447 55.0682 22.623 54.6999 24.0267 54.6999C25.1583 54.6999 26.1641 54.942 27.0441 55.4261C27.9452 55.8894 28.6471 56.5315 29.15 57.3527V26.3347H35.3419V72.8595H29.15V70.1751C28.668 70.9961 27.9871 71.6487 27.1069 72.1331C26.2269 72.6174 25.1898 72.8595 23.9953 72.8595C22.5915 72.8595 21.3132 72.491 20.1608 71.7541C19.0293 71.0172 18.1283 69.9644 17.4577 68.5959C16.8082 67.2063 16.4834 65.5957 16.4834 63.7639ZM29.1814 63.7639C29.1814 62.6269 28.8671 61.7322 28.2386 61.0793C27.6309 60.4266 26.8766 60.1003 25.9755 60.1003C25.0535 60.1003 24.2887 60.4266 23.681 61.0793C23.0733 61.7111 22.7696 62.6058 22.7696 63.7639C22.7696 64.9009 23.0733 65.8062 23.681 66.4799C24.2887 67.1326 25.0535 67.4589 25.9755 67.4589C26.8766 67.4589 27.6309 67.1326 28.2386 66.4799C28.8671 65.8272 29.1814 64.922 29.1814 63.7639Z" fill="#FF7272"/>
<path d="M41.6604 53.0111C40.571 53.0111 39.6907 52.6663 39.0202 52.0769C38.3707 51.4663 38.0459 50.7083 38.0459 49.8028C38.0459 48.8765 38.3707 48.223 39.0202 47.6124C39.6907 47.0017 40.571 46.739 41.6604 46.739C42.7292 46.739 43.5881 47.0017 44.2378 47.6124C44.9083 48.223 45.2435 48.8765 45.2435 49.8028C45.2435 50.7083 44.9083 51.4663 44.2378 52.0769C43.5881 52.6663 42.7292 53.0111 41.6604 53.0111ZM44.7092 55.8052V72.8596H38.5488V64.3324V55.8052H44.7092Z" fill="#FF7272"/>
<path d="M47.5151 63.7639C47.5151 61.9321 47.84 60.3321 48.4894 58.9633C49.16 57.5948 50.0611 56.5421 51.1925 55.8051C52.345 55.0682 53.6233 54.7 55.0272 54.7C56.2424 54.7 57.2901 54.942 58.1701 55.4261C59.0503 55.9105 59.7312 56.5631 60.2132 57.3843L60.1888 55.4261H66.3736V72.8595H60.2132V70.1751C59.7312 70.9961 59.0398 71.6488 58.1387 72.1331C57.2587 72.6175 56.2215 72.8595 55.0272 72.8595C53.6233 72.8595 52.345 72.4911 51.1925 71.7541C50.0611 71.0172 49.16 69.9645 48.4894 68.5959C47.84 67.2063 47.5151 65.5957 47.5151 63.7639ZM60.2132 63.7639C60.2132 62.6269 59.8989 61.7322 59.2703 61.0793C58.6626 60.4267 57.9083 60.1003 57.0072 60.1003C56.0852 60.1003 55.3204 60.4267 54.7127 61.0793C54.1052 61.7111 53.8013 62.6059 53.8013 63.7639C53.8013 64.9009 54.1052 65.8062 54.7127 66.4799C55.3204 67.1326 56.0852 67.4589 57.0072 67.4589C57.9083 67.4589 58.6626 67.1326 59.2703 66.4799C59.8989 65.8273 60.2132 64.922 60.2132 63.7639Z" fill="#FF7272"/>
<path d="M73.6777 73.7373C72.5617 73.7373 71.7182 73.4009 71.1472 72.7283C70.6021 72.0289 70.3296 71.1947 70.3296 70.226C70.3296 69.2306 70.6151 68.3964 71.1861 67.7238C71.783 67.0511 72.6135 66.7147 73.6777 66.7147C74.7419 66.7147 75.5854 66.9972 76.2085 67.5623C76.8313 68.1274 77.1428 68.9749 77.1428 70.1049C77.1428 71.2351 76.8443 72.123 76.2474 72.7686C75.6764 73.4145 74.8197 73.7373 73.6777 73.7373Z" fill="#FF7272"/>
</g>
<defs>
<clipPath id="clip0_57_31">
<rect width="100" height="73.7374" fill="white"/>
</clipPath>
</defs>
</svg>