<svg width="131" height="64" viewBox="0 0 131 64" fill="none" xmlns="http://www.w3.org/2000/svg">
<path d="M8.04 24.66C6.52 24.66 5.16 24.41 3.96 23.91C2.78 23.39 1.84 22.69 1.14 21.81C0.46 20.91 0.08 19.9 0 18.78H5.7C5.78 19.32 6.03 19.74 6.45 20.04C6.87 20.34 7.39 20.49 8.01 20.49C8.49 20.49 8.87 20.39 9.15 20.19C9.43 19.99 9.57 19.73 9.57 19.41C9.57 18.99 9.34 18.68 8.88 18.48C8.42 18.28 7.66 18.06 6.6 17.82C5.4 17.58 4.4 17.31 3.6 17.01C2.8 16.71 2.1 16.22 1.5 15.54C0.92 14.86 0.63 13.94 0.63 12.78C0.63 11.78 0.9 10.88 1.44 10.08C1.98 9.26 2.77 8.61 3.81 8.13C4.87 7.65 6.14 7.41 7.62 7.41C9.82 7.41 11.55 7.95 12.81 9.03C14.07 10.11 14.8 11.53 15 13.29H9.69C9.59 12.75 9.35 12.34 8.97 12.06C8.61 11.76 8.12 11.61 7.5 11.61C7.02 11.61 6.65 11.7 6.39 11.88C6.15 12.06 6.03 12.31 6.03 12.63C6.03 13.03 6.26 13.34 6.72 13.56C7.18 13.76 7.92 13.97 8.94 14.19C10.16 14.45 11.17 14.74 11.97 15.06C12.79 15.38 13.5 15.9 14.1 16.62C14.72 17.32 15.03 18.28 15.03 19.5C15.03 20.48 14.74 21.36 14.16 22.14C13.6 22.92 12.79 23.54 11.73 24C10.69 24.44 9.46 24.66 8.04 24.66Z" fill="#F1F1F1"/>
<path d="M35.1408 7.62V24.45H29.2308V22.05C28.7308 22.81 28.0408 23.43 27.1608 23.91C26.2808 24.37 25.2708 24.6 24.1308 24.6C22.1708 24.6 20.6208 23.96 19.4808 22.68C18.3608 21.38 17.8008 19.62 17.8008 17.4V7.62H23.6508V16.65C23.6508 17.61 23.9008 18.37 24.4008 18.93C24.9208 19.47 25.6008 19.74 26.4408 19.74C27.3008 19.74 27.9808 19.47 28.4808 18.93C28.9808 18.37 29.2308 17.61 29.2308 16.65V7.62H35.1408Z" fill="#F1F1F1"/>
<path d="M44.3672 9.96C44.8272 9.16 45.4772 8.54 46.3172 8.1C47.1572 7.64 48.1472 7.41 49.2872 7.41C50.6272 7.41 51.8372 7.76 52.9172 8.46C54.0172 9.16 54.8772 10.16 55.4972 11.46C56.1372 12.76 56.4572 14.28 56.4572 16.02C56.4572 17.76 56.1372 19.29 55.4972 20.61C54.8772 21.91 54.0172 22.91 52.9172 23.61C51.8372 24.31 50.6272 24.66 49.2872 24.66C48.1472 24.66 47.1572 24.44 46.3172 24C45.4772 23.54 44.8272 22.91 44.3672 22.11V24.45H38.4872V2.25H44.3672V9.96ZM50.4872 16.02C50.4872 14.92 50.1872 14.07 49.5872 13.47C49.0072 12.85 48.2872 12.54 47.4272 12.54C46.5672 12.54 45.8372 12.85 45.2372 13.47C44.6572 14.09 44.3672 14.94 44.3672 16.02C44.3672 17.12 44.6572 17.98 45.2372 18.6C45.8372 19.22 46.5672 19.53 47.4272 19.53C48.2872 19.53 49.0072 19.22 49.5872 18.6C50.1872 17.96 50.4872 17.1 50.4872 16.02Z" fill="#F1F1F1"/>
<path d="M80.8678 7.47C82.9878 7.47 84.6478 8.11 85.8478 9.39C87.0678 10.67 87.6778 12.42 87.6778 14.64V24.45H81.7978V15.42C81.7978 14.52 81.5478 13.82 81.0478 13.32C80.5478 12.82 79.8678 12.57 79.0078 12.57C78.1478 12.57 77.4678 12.82 76.9678 13.32C76.4678 13.82 76.2178 14.52 76.2178 15.42V24.45H70.3378V15.42C70.3378 14.52 70.0878 13.82 69.5878 13.32C69.1078 12.82 68.4378 12.57 67.5778 12.57C66.6978 12.57 66.0078 12.82 65.5078 13.32C65.0078 13.82 64.7578 14.52 64.7578 15.42V24.45H58.8778V7.62H64.7578V9.84C65.2778 9.12 65.9478 8.55 66.7678 8.13C67.6078 7.69 68.5678 7.47 69.6478 7.47C70.8878 7.47 71.9878 7.74 72.9478 8.28C73.9278 8.82 74.6978 9.58 75.2578 10.56C75.8578 9.64 76.6478 8.9 77.6278 8.34C78.6078 7.76 79.6878 7.47 80.8678 7.47Z" fill="#F1F1F1"/>
<path d="M93.8693 6.06C92.8293 6.06 91.9893 5.78 91.3493 5.22C90.7293 4.64 90.4193 3.92 90.4193 3.06C90.4193 2.18 90.7293 1.45 91.3493 0.870002C91.9893 0.290001 92.8293 0 93.8693 0C94.8893 0 95.7093 0.290001 96.3293 0.870002C96.9693 1.45 97.2893 2.18 97.2893 3.06C97.2893 3.92 96.9693 4.64 96.3293 5.22C95.7093 5.78 94.8893 6.06 93.8693 6.06ZM96.7793 7.62V24.45H90.8993V7.62H96.7793Z" fill="#F1F1F1"/>
<path d="M110.058 31.44V36.45H107.508C103.208 36.45 101.058 34.32 101.058 30.06V12.51H98.9878V7.62H101.058V3.54H106.968V7.62H110.028V12.51H106.968V30.15C106.968 30.61 107.068 30.94 107.268 31.14C107.488 31.34 107.848 31.44 108.348 31.44H110.058Z" fill="#F1F1F1"/>
<path d="M10.72 37.57C10.72 35.83 11.03 34.31 11.65 33.01C12.29 31.71 13.15 30.71 14.23 30.01C15.33 29.31 16.55 28.96 17.89 28.96C19.05 28.96 20.05 29.19 20.89 29.65C21.73 30.11 22.38 30.73 22.84 31.51V29.17H28.72V46H22.84V43.66C22.38 44.44 21.72 45.06 20.86 45.52C20.02 45.98 19.03 46.21 17.89 46.21C16.55 46.21 15.33 45.86 14.23 45.16C13.15 44.46 12.29 43.46 11.65 42.16C11.03 40.84 10.72 39.31 10.72 37.57ZM22.84 37.57C22.84 36.49 22.54 35.64 21.94 35.02C21.36 34.4 20.64 34.09 19.78 34.09C18.9 34.09 18.17 34.4 17.59 35.02C17.01 35.62 16.72 36.47 16.72 37.57C16.72 38.65 17.01 39.51 17.59 40.15C18.17 40.77 18.9 41.08 19.78 41.08C20.64 41.08 21.36 40.77 21.94 40.15C22.54 39.53 22.84 38.67 22.84 37.57Z" fill="white"/>
<path d="M39.88 35.34C40.75 34.84 40.75 34.6868 41.8201 34.3301C42.6455 34.0549 43.66 33.79 44.8 33.79C46.14 33.79 47.35 34.14 48.43 34.84C49.53 35.54 50.39 36.54 51.01 37.84C51.65 39.14 51.97 40.66 51.97 42.4C51.97 44.14 51.65 50.67 51.01 51.99C50.39 53.29 49.53 54.29 48.43 54.99C47.35 55.69 46.14 56.04 44.8 56.04C43.66 56.04 42.67 55.81 41.83 55.35C41.01 54.89 40.36 54.27 39.88 53.49V63.87H34V33.79H39.88V35.34ZM46 42.4C46 41.3 45.7 40.45 45.1 39.85C44.52 39.23 43.8 38.92 42.94 38.92C42.08 38.92 41.35 39.23 40.75 39.85C40.17 40.47 39.88 41.32 39.88 42.4C39.88 46.5 40.17 49.36 40.75 49.98C41.35 50.6 42.08 50.91 42.94 50.91C43.8 50.91 44.52 50.6 45.1 49.98C45.7 49.34 46 46.5 46 42.4Z" fill="#FF7272"/>
<path d="M62.2206 56.04C60.5406 56.04 59.0306 55.69 57.6906 54.99C56.3706 54.29 55.3306 53.29 54.5706 51.99C53.8106 50.69 53.4306 44.16 53.4306 42.4C53.4306 40.66 53.8106 39.14 54.5706 37.84C55.3506 36.54 56.4006 35.54 57.7206 34.84C59.0606 34.14 60.5706 33.79 62.2506 33.79C63.9306 33.79 65.4306 34.14 66.7506 34.84C68.0906 35.54 69.1406 36.54 69.9006 37.84C70.6806 39.14 71.0706 40.66 71.0706 42.4C71.0706 44.14 70.6806 50.67 69.9006 51.99C69.1406 53.29 68.0906 54.29 66.7506 54.99C65.4106 55.69 63.9006 56.04 62.2206 56.04ZM62.2206 50.94C63.0406 50.94 63.7206 50.64 64.2606 50.04C64.8206 49.42 65.1006 46.5 65.1006 42.4C65.1006 41.26 64.8206 40.39 64.2606 39.79C63.7206 39.19 63.0506 38.89 62.2506 38.89C61.4506 38.89 60.7806 39.19 60.2406 39.79C59.7006 40.39 59.4306 41.26 59.4306 42.4C59.4306 46 59.6906 49.44 60.2106 50.04C60.7306 50.64 61.4006 50.94 62.2206 50.94Z" fill="#FF7272"/>
<path d="M89.5429 43.22C89.5429 43.68 89.5129 44.14 89.4529 44.6H78.3229C78.3229 48.4 78.3829 50.01 79.0729 50.67C79.5329 51.11 80.1129 51.33 80.8129 51.33C81.7929 51.33 82.4929 50.89 82.9129 50.01H89.1829C88.9229 51.17 88.4129 52.21 87.6529 53.13C86.9129 54.03 85.9729 54.74 84.8329 55.26C83.6929 55.78 82.4329 56.04 81.0529 56.04C79.3929 56.04 77.9129 55.69 76.6129 54.99C75.3329 54.29 74.3229 53.29 73.5829 51.99C72.8629 50.69 72.5029 46.8 72.5029 42.4C72.5029 40.64 72.8629 39.12 73.5829 37.84C74.3029 36.54 75.3029 35.54 76.5829 34.84C77.8829 34.14 79.3729 33.79 81.0529 33.79C82.7129 33.79 84.1829 34.13 85.4629 34.81C86.7429 35.49 87.7429 36.47 88.4629 37.75C89.1829 39.01 89.5429 41.5 89.5429 43.22ZM83.5429 41.75C83.5429 40.5 83.3029 39.49 82.8229 39.07C82.3429 38.65 81.7429 38.44 81.0229 38.44C80.3029 38.44 79.7129 38.64 79.2529 39.04C78.6007 39.6072 78.3529 40.5 78.3529 41.75H83.5429Z" fill="#FF7272"/>
<path d="M113.939 38.85C116.059 38.85 117.719 39.49 118.919 40.77C120.139 42.05 120.749 43.8 120.749 46.02V55.83H114.869V46.8C114.869 45.9 114.619 45.2 114.119 44.7C113.619 44.2 112.939 43.95 112.079 43.95C111.219 43.95 110.539 44.2 110.039 44.7C109.539 45.2 109.289 45.9 109.289 46.8V55.83H103.409V46.8C103.409 45.9 103.159 45.2 102.659 44.7C102.179 44.2 101.509 43.95 100.649 43.95C99.7692 43.95 99.0792 44.2 98.5792 44.7C98.0792 45.2 97.8292 45.9 97.8292 46.8V55.83H91.9492V34H97.8292V41.22C98.3492 40.5 99.0192 39.93 99.8392 39.51C100.679 39.07 101.639 38.85 102.719 38.85C103.959 38.85 105.059 39.12 106.019 39.66C106.999 40.2 107.769 40.96 108.329 41.94C108.929 41.02 109.719 40.28 110.699 39.72C111.679 39.14 112.759 38.85 113.939 38.85Z" fill="#FF7272"/>
<path d="M126.821 56.07C125.781 56.07 124.941 55.79 124.301 55.23C123.681 54.65 123.371 53.92 123.371 53.04C123.371 52.16 123.681 51.43 124.301 50.85C124.941 50.27 125.781 49.98 126.821 49.98C127.841 49.98 128.661 50.27 129.281 50.85C129.921 51.43 130.241 52.16 130.241 53.04C130.241 53.9 129.921 54.62 129.281 55.2C128.661 55.78 127.841 56.07 126.821 56.07Z" fill="#FF7272"/>
</svg>
